<svg xmlns="http://www.w3.org/2000/svg" width="1024" height="1024" viewBox="0 0 1024 1024"><path d="M401.118 748.05c-9.817-1.066-23.62-.133-33.826-.382-17.445-.424-37.158.543-54.36-.424-33.88-1.904-70.716-17.729-94.665-42.168-32.163-32.821-43.605-69.508-43.73-114.422l-.012-200.381-.021-59.81c-.006-21.362-.817-42.696 3.823-63.697a145.94 145.94 0 0 1 38.356-71.411c29.841-29.928 65.736-44.514 108.063-44.561l270.218.194 74-.018c21.328-.02 41.558-1.152 62.682 2.781 54.119 10.077 98.555 52.021 112.833 105.033 1.564 5.808 3.522 13.68 3.521 19.663-.514 4.44.343 16.608.351 22.425l.096 62.723-.045 175.559-.03 48.903c.007 4.693-.356 21.484.668 24.887.033.443.077.846.032 1.299-6.822 68.835-62.438 125.524-131.209 133.362-10.926 1.246-21.858 1.003-32.884 1.011q-20.675-.053-41.35.142c-23.045.238-20.215-3.903-33.695 14.713l-14.489 19.751-38.586 52.168c-5.068 6.984-15.962 23.206-21.352 28.419a33.26 33.26 0 0 1-23.711 9.162c-21.662-.474-28.504-15.907-40.137-31.338l-49.788-66.674c-5.861-7.728-14.196-20.32-20.753-26.909m195.05-5.304c5.538-7.707 12.547-16.195 23.015-16.914 32.039-2.199 68.902 2.339 100.409-1.737 52.498-6.792 97.834-54.333 104.904-106.264 2.336-17.578 1.485-36.633 1.471-54.172l-.027-88.877.082-126.962.008-35.492c.008-12.323.368-21.671-1.407-33.959a121.73 121.73 0 0 0-47.391-79.409 122.3 122.3 0 0 0-55.556-23.102c-11.111-1.606-21.528-1.402-32.698-1.391l-33.892.043-115.083.064-146.905-.046-47.394-.007c-6.819.002-18.292-.313-24.831.203-37.083 1.753-65.58 13.543-90.85 41.339a119.2 119.2 0 0 0-29.162 58.048c-3.833 19.795-2.482 45.433-2.383 66.057l.166 85.181-.17 118.806c-.034 20.358-.238 40.851.146 61.053 1.188 62.62 52.237 114.185 114.094 118.818 10.092.756 20.363.513 30.551.511l40.765-.042c10.714-.047 22.202-1.173 31.56 5.169 7.155 4.849 28.547 35.716 35.09 44.483l40.724 54.108c1.95 2.552 3.761 5.224 5.691 7.787 6.826 9.069 8.432 15.318 20.983 12.239 6.576-8.223 15.546-21.723 22.249-30.801z"/><path d="M500.338 327.425c-18.833-9.34-28.65-28.36-20.096-48.535a33.74 33.74 0 0 1 18.727-18.487 36.69 36.69 0 0 1 28.018.68c27.216 12.106 27.529 54.286-2.999 65.583-.088 5.045-.215 9.774.085 14.826 8.154.259 17.676-.027 25.927-.029l48.221.023c10.5-.036 28.096-.687 37.963 1.074a53.2 53.2 0 0 1 19.612 7.944c13.369 8.71 23.258 22.295 26.528 37.987 7.789 2.06 11.59 3.35 18.228 8.263 5.626 4.164 12.312 12.439 13.181 19.507-.743 2.475-.374 2.023-.105 4.16 1.905 15.149.34 31.774.772 47.124.09 3.161-.427 9.338.551 11.777.153 4.564-5.133 14.897-8.401 18.283-11.805 12.235-21.255 12.455-36.327 13.392-1.768 6.487-2.337 14.225-3.294 20.908-3.135 21.885-2.45 42.799-13.655 62.576a78.69 78.69 0 0 1-48.869 37.421 74.3 74.3 0 0 1-14.734 2.487c-13.723.834-29.91-.202-43.955.086-12.04-.098-24.12.355-36.152.042-8.187-.213-11.007-4.603-12.61-11.807.511-2.208 1.182-5.111 2.593-6.896 4.995-6.323 18.312-4.258 25.981-4.272l38.267-.038c25.352.028 46.593.647 64.15-21.409 10.576-13.286 11.469-25.491 13.152-41.818.718-6.969 1.746-14.509 2.678-21.477l11.339-86.667c1.466-11.189 2.897-22.504 4.544-33.665 1.996-13.53-3.488-26.2-14.595-34.391a34.04 34.04 0 0 0-16.107-6.338c-4.361-.511-13.26-.317-17.929-.354l-32.946-.24a9572 9572 0 0 0-117.523.154q-19.855.201-39.709-.111c-19.586-.227-36.75-2.926-49.763 15.23a34.94 34.94 0 0 0-6.495 18.33c-.294 5.891 1.503 17.498 2.372 23.631a1335 1335 0 0 1 3.692 27.39l9.285 69.741c2.017 15.442 3.969 31.766 6.232 46.628 4.046 24.21 27.176 45.097 52.073 44.998 9.331-.038 19.773.97 18.343 14.173-1.436 6.611-6.163 8.692-12.017 9.096-35.018 2.42-67.177-19.15-78.654-52.229-4.842-13.958-5.929-32.409-7.955-47.499a4172 4172 0 0 1-9.954-75.541c-2.339-19.06-5.678-39.223-7.187-58.141-1.097-13.75 6.697-31.244 16.179-41.001 7.341-7.554 18.36-14.528 28.798-16.907 12.9-2.94 30.012-1.534 43.604-1.693 23.445-.275 47.602.752 70.984-.037.159-4.504.006-9.398-.048-13.932m181.902 158.98c8.307-3.654 9.573-7.834 9.809-16.518.284-10.457.087-20.954.265-31.414-.037-9.533 1.786-20.605-9.228-24.563l-.385-.139a2724 2724 0 0 0-9.339 73.14zM502.669 299.853a11.443 11.443 0 0 0 20.209-1.935 11.441 11.441 0 1 0-20.209 1.935"/><path d="M450.3 494.675c3.415-.45 14.35-.244 18.198-.247l36.995-.016 45.766.012c13.032.017 27.667-1.874 38.564 6.302a29.24 29.24 0 0 1 11.434 19.49c.481 3.509.371 10.267.379 13.95.024 10.706 1.186 21.061-5.931 29.979-6.026 7.553-12.911 10.131-22.09 11.28-7.42.356-17.711.067-25.354.07l-49.381.012-31.636.008c-10.944.016-24.817 1.266-33.758-5.781-11.115-8.76-11.94-20.584-11.532-33.607.343-10.959-1.18-20.951 6.378-30.21 5.822-7.132 13.108-10.193 21.968-11.242m-.942 57.21c11.066.86 26.713.199 38.298.258q42.335.363 84.672-.02c7.182-.778 6.14-6.28 6.248-12.237.068-3.737.822-17.496-1.898-19.688-6.202-2.412-18.158-1.759-25.128-1.784l-32.319-.078c-20.562-.025-47.675-.692-67.89.353-1.741.534-3.817 1.276-4.601 3.021-2.077 4.622-1.442 21.529-1.036 26.738 1.198 1.199 2.317 2.398 3.654 3.437"/><path d="M574.447 410.91c15.419-1.046 28.8 10.531 29.981 25.941s-10.278 28.891-25.676 30.207c-15.591 1.334-29.278-10.3-30.474-25.902s10.557-29.187 26.169-30.246m3.359 32.027a4.06 4.06 0 1 0-3.754-7.189 4.062 4.062 0 0 0 3.754 7.189"/><path d="M445.66 410.887c15.414-.987 28.742 10.634 29.865 26.038s-10.381 28.835-25.775 30.093c-15.587 1.273-29.222-10.406-30.358-26.003-1.137-15.597 10.662-29.129 26.268-30.128m3.142 31.996a4.155 4.155 0 1 0-3.281-7.634 4.155 4.155 0 0 0 3.281 7.634"/><path d="M714.951 479.322c-.978-2.439-.461-8.616-.551-11.777-.432-15.35 1.133-31.975-.772-47.124-.269-2.137-.638-1.685.105-4.16.644 1.793 1.61 4.728 1.607 6.537-.014 8.834 1.221 50.579-.389 56.524"/><path d="M848 278.447c2.003 10.438 1.52 24.036 1.522 34.884v209.007l-.034 60.915c.015 5.109.446 25.611-.448 29.691-1.024-3.403-.661-20.194-.668-24.887l.03-48.903.045-175.559-.096-62.723c-.008-5.817-.865-17.985-.351-22.425"/></svg>