<?xml version="1.0" encoding="utf-8" ?><svg xmlns="http://www.w3.org/2000/svg" xmlns:xlink="http://www.w3.org/1999/xlink" width="1024" height="1024" viewBox="0 0 1024 1024"><defs><linearGradient id="gradient_0" gradientUnits="userSpaceOnUse" x1="386.15784" y1="160.0117" x2="87.545959" y2="357.21216"><stop offset="0" stop-color="#FF82B6"/><stop offset="1" stop-color="#E137E0"/></linearGradient></defs><path fill="url(#gradient_0)" transform="scale(2 2)" d="M286.626 378.763L155.043 378.763C146.066 378.772 137.189 379.356 128.384 377.371C90.4014 368.809 64.1183 336.952 63.9791 297.949L63.9714 168.184C63.972 157.966 63.431 147.395 65.7498 137.365C72.6367 107.573 95.9604 83.7111 125.926 77.0179C136.588 74.6364 147.652 75.2499 158.576 75.2502L316.843 75.2548L353.873 75.2482C357.832 75.2469 362.218 75.3947 366.132 75.2507C403.272 73.8847 436.428 98.4934 445.39 134.688C448.206 146.061 447.801 156.559 447.802 168.125L447.814 277.617C447.813 278.163 447.821 277.957 447.794 278.336C447.821 295.456 448.898 320.81 438.635 335.802C430.52 353.53 412.421 368.844 394.244 375.239C391.201 376.309 388.029 377.119 385.135 378.559L384.732 378.763L384.752 396.556C384.76 415.119 380.593 433.936 358.203 435.714C342.229 436.982 334.575 426.536 324.634 416.53L299.941 392.056C296.039 388.171 290.554 382.185 286.626 378.763ZM275.524 279.296C277.853 272.779 277.237 266.587 272.366 261.303C266.397 254.826 257.634 256.053 249.425 256.05L222.589 256.056C215.216 256.058 198.08 256.971 191.919 254.382C161.299 241.512 165.53 198.372 198.457 192.103C204.502 190.943 212.311 191.492 218.49 191.492L248.834 191.497C252.704 191.495 260.072 191.796 263.572 190.704C272.235 188.001 276.702 177.242 272.544 169.145C267.737 159.785 258.327 160.82 249.543 160.859L234.4 160.903L210.968 160.898C189.455 160.909 174.771 162.369 158.37 178.526C133.566 202.96 133.677 244.746 158.4 269.185C179.536 290.079 195.45 289.122 221.84 289.1L256.793 289.113C264.958 289.043 271.88 287.44 275.524 279.296ZM318.286 238.594C312.917 230.474 306.296 214.8 297.002 212.901C287.55 210.971 279.133 216.537 277.39 226.039C275.903 234.146 290.168 256.391 294.793 264.376C298.701 271.926 305.027 285.838 313.131 288.26C329.469 293.143 333.838 278.2 339.54 267.023L365.7 216.311C367.505 212.861 370.7 207.653 371.88 204.138C375.654 192.893 365.797 183.308 354.151 183.797C342.338 186.19 340.779 195.382 335.622 205.275C329.933 216.188 323.69 227.558 318.286 238.594Z"/><path fill="#FE87B9" transform="scale(2 2)" d="M316.843 75.2548L353.873 75.2482C357.832 75.2469 362.218 75.3947 366.132 75.2507C403.272 73.8847 436.428 98.4934 445.39 134.688C448.206 146.061 447.801 156.559 447.802 168.125L447.814 277.617C447.813 278.163 447.821 277.957 447.794 278.336C447.821 295.456 448.898 320.81 438.635 335.802L438.326 335.697C438.156 334.88 440.203 331.586 440.598 330.653C445.984 317.928 446.342 313.551 446.668 300.754C448.181 298.461 447.277 293.691 447.794 289.866C444.185 285.472 441.908 257.157 441.519 256.651C441.029 256.014 440.756 253.327 441.132 252.378C438.591 250.855 435.423 247.383 435.182 244.325C431.658 242.644 434.772 241.468 434.398 239.959C432.98 233.958 431.448 229.191 428.268 223.978C423.909 216.834 422.441 219.738 417.219 216.854L416.86 216.652C411.952 213.936 412.561 210.831 408.612 214.334C408.171 214.726 392.805 210.108 400.679 198.861C401.707 197.389 397.713 191.598 397.343 189.582L396.87 189.335C396.473 190.697 394.011 192.707 392.348 192.671C391.073 190.968 391.769 190.458 389.762 189.938L389.766 189.298L390.289 188.919L390.16 188.521C389.036 185.009 389.883 181.856 388.646 181.158L388.805 180.3L389.172 180.309C389.383 180.652 389.555 180.976 389.68 181.359L390.367 181.278C391.664 183.842 390.588 180.177 392.353 181.574L392.534 181.251C392.516 178.912 391.811 179.725 390.555 180.954C390.03 180.199 389.192 178.747 388.47 178.317L387.633 178.983C386.962 178.373 386.571 177.973 385.783 177.5L385.45 178.306C383.523 177.064 382.164 174.102 380.163 172.499C378.66 171.297 375.577 170.793 375.295 168.723C376.453 168.811 377.936 166.774 378.644 165.482C378.449 165.271 372.037 160.043 371.835 159.969L371.655 160.465C371.214 160.281 371.002 159.199 370.373 158.408L369.831 158.654L369.806 157.941L369.427 157.863L369.174 158.387C361.925 150.597 356.039 142.359 350.559 133.185C345.503 124.72 349.8 127.091 340.73 121.605L339.662 121.93C337.497 120.102 334.163 114.568 333.679 111.873C333.128 108.802 335.37 107.889 333.449 104.789L333.892 103.906L333.379 103.625L332.925 103.964C332.688 103.251 333.399 100.73 333.194 100.355C332.574 99.2221 331.671 99.1181 331.721 97.5649C333.8 98.9692 330.795 93.6549 330.396 91.7029L330.331 91.366C329.625 90.741 330.048 90.9796 328.871 90.9121C325.775 87.0303 327.803 85.0453 329.287 87.736L329.492 87.4918C328.387 85.782 328.704 83.4859 327.242 82.2906C321.627 77.7001 324.439 79.6039 318.794 77.0789L318.849 76.7617C321.567 74.2838 321.194 76.6861 316.843 75.2548Z"/><path fill="#FE87B9" transform="scale(2 2)" d="M324.145 93.6615C328.731 97.0504 329.926 101.559 330.624 107.122C327.709 104.342 323.838 97.7995 324.145 93.6615Z"/></svg>