<svg xmlns="http://www.w3.org/2000/svg" class="rounded-xl" viewBox="0 0 484 484"><rect width="484" height="484" fill="#ffffff" id="bg" class="bg"/><g><g transform="translate(14.52,&#10;                                14.52) rotate(90, 9.68, 9.68)"><svg xmlns="http://www.w3.org/2000/svg" id="Layer_1" data-name="Layer 1" viewBox="0 0 100 100" width="19.36" height="19.36"><path d="M50,100a50,50,0,1,1,50-50v50Z" fill="#3D348B"/></svg></g><g transform="translate(62.92,&#10;                                14.52) rotate(90, 9.68, 9.68)"><svg xmlns="http://www.w3.org/2000/svg" id="Layer_1" data-name="Layer 1" viewBox="0 0 100 100" width="19.36" height="19.36"><path d="M100,100A50,50,0,0,0,0,100Z" fill="#F7B801"/></svg></g><g transform="translate(14.52,&#10;                                62.92) rotate(90, 9.68, 9.68)"><svg xmlns="http://www.w3.org/2000/svg" id="Layer_1" data-name="Layer 1" viewBox="0 0 100 100" width="19.36" height="19.36"><path d="M100,100A50,50,0,0,0,0,100Z" fill="#F7B801"/></svg></g><g transform="translate(62.92,&#10;                                62.92) rotate(180, 9.68, 9.68)"><svg xmlns="http://www.w3.org/2000/svg" id="Layer_1" data-name="Layer 1" viewBox="0 0 100 100" width="19.36" height="19.36"><path d="M50,100a50,50,0,1,1,50-50v50Z" fill="#3D348B"/></svg></g><g transform="translate(159.72,&#10;                                14.52) rotate(180, 9.68, 9.68)"><svg xmlns="http://www.w3.org/2000/svg" id="Layer_1" data-name="Layer 1" viewBox="0 0 100 100" width="19.36" height="19.36"><path d="M100,100A50,50,0,0,0,0,100Z" fill="#F7B801"/></svg></g><g transform="translate(159.72,&#10;                                62.92) rotate(90, 9.68, 9.68)"><svg xmlns="http://www.w3.org/2000/svg" id="Layer_1" data-name="Layer 1" viewBox="0 0 100 100" width="19.36" height="19.36"><path d="M50,100h0A50,50,0,0,1,0,50V0H100V50A50,50,0,0,1,50,100Z" fill="#F18701"/></svg></g><g transform="translate(208.12,&#10;                                14.52) rotate(0, 9.68, 9.68)"><svg xmlns="http://www.w3.org/2000/svg" id="Layer_1" data-name="Layer 1" viewBox="0 0 100 100" width="19.36" height="19.36"><path d="M50,100a50,50,0,1,1,50-50v50Z" fill="#3D348B"/></svg></g><g transform="translate(208.12,&#10;                                62.92) rotate(180, 9.68, 9.68)"><svg xmlns="http://www.w3.org/2000/svg" id="Layer_1" data-name="Layer 1" viewBox="0 0 100 100" width="19.36" height="19.36"><path d="M50,100h0A50,50,0,0,1,0,50V0H100V50A50,50,0,0,1,50,100Z" fill="#F18701"/></svg></g><g transform="translate(304.92,&#10;                                14.52) rotate(90, 9.68, 9.68)"><svg xmlns="http://www.w3.org/2000/svg" id="Layer_1" data-name="Layer 1" viewBox="0 0 100 100" width="19.36" height="19.36"><path d="M100,100A50,50,0,0,0,0,100Z" fill="#F7B801"/></svg></g><g transform="translate(353.32,&#10;                                14.52) rotate(180, 9.68, 9.68)"><svg xmlns="http://www.w3.org/2000/svg" id="Layer_1" data-name="Layer 1" viewBox="0 0 100 100" width="19.36" height="19.36"><path d="M100,100A50,50,0,0,0,0,100Z" fill="#F7B801"/></svg></g><g transform="translate(304.92,&#10;                                62.92) rotate(90, 9.68, 9.68)"><svg xmlns="http://www.w3.org/2000/svg" id="Layer_1" data-name="Layer 1" viewBox="0 0 100 100" width="19.36" height="19.36"><circle cx="50" cy="50" r="50" fill="#7678ED"/></svg></g><g transform="translate(401.72,&#10;                                14.52) rotate(90, 9.68, 9.68)"><svg xmlns="http://www.w3.org/2000/svg" id="Layer_1" data-name="Layer 1" viewBox="0 0 100 100" width="19.36" height="19.36"><path d="M50,100a50,50,0,1,1,50-50v50Z" fill="#3D348B"/></svg></g><g transform="translate(450.12,&#10;                                14.52) rotate(0, 9.68, 9.68)"><svg xmlns="http://www.w3.org/2000/svg" id="Layer_1" data-name="Layer 1" viewBox="0 0 100 100" width="19.36" height="19.36"><path d="M100,100A50,50,0,0,0,0,100Z" fill="#F7B801"/></svg></g><g transform="translate(401.72,&#10;                                62.92) rotate(180, 9.68, 9.68)"><svg xmlns="http://www.w3.org/2000/svg" id="Layer_1" data-name="Layer 1" viewBox="0 0 100 100" width="19.36" height="19.36"><path d="M100,100A50,50,0,0,0,0,100Z" fill="#F7B801"/></svg></g><g transform="translate(450.12,&#10;                                62.92) rotate(90, 9.68, 9.68)"><svg xmlns="http://www.w3.org/2000/svg" id="Layer_1" data-name="Layer 1" viewBox="0 0 100 100" width="19.36" height="19.36"><path d="M100,100A50,50,0,0,0,0,100Z" fill="#F7B801"/></svg></g></g><g><g transform="translate(14.52,&#10;                                159.72) rotate(0, 9.68, 9.68)"><svg xmlns="http://www.w3.org/2000/svg" id="Layer_1" data-name="Layer 1" viewBox="0 0 100 100" width="19.36" height="19.36"><circle cx="50" cy="50" r="50" fill="#7678ED"/></svg></g><g transform="translate(62.92,&#10;                                159.72) rotate(0, 9.68, 9.68)"><svg xmlns="http://www.w3.org/2000/svg" id="Layer_1" data-name="Layer 1" viewBox="0 0 100 100" width="19.36" height="19.36"><path d="M50,100a50,50,0,1,1,50-50v50Z" fill="#3D348B"/></svg></g><g transform="translate(159.72,&#10;                                111.32) rotate(270, 9.68, 9.68)"><svg xmlns="http://www.w3.org/2000/svg" id="Layer_1" data-name="Layer 1" viewBox="0 0 100 100" width="19.36" height="19.36"><path d="M50,100h0A50,50,0,0,1,0,50V0H100V50A50,50,0,0,1,50,100Z" fill="#F18701"/></svg></g><g transform="translate(159.72,&#10;                                159.72) rotate(180, 9.68, 9.68)"><svg xmlns="http://www.w3.org/2000/svg" id="Layer_1" data-name="Layer 1" viewBox="0 0 100 100" width="19.36" height="19.36"><path d="M50,100a50,50,0,1,1,50-50v50Z" fill="#3D348B"/></svg></g><g transform="translate(208.12,&#10;                                111.32) rotate(270, 9.68, 9.68)"><svg xmlns="http://www.w3.org/2000/svg" id="Layer_1" data-name="Layer 1" viewBox="0 0 100 100" width="19.36" height="19.36"><path d="M100,100A50,50,0,0,0,0,100Z" fill="#F7B801"/></svg></g><g transform="translate(256.52,&#10;                                111.32) rotate(90, 9.68, 9.68)"><svg xmlns="http://www.w3.org/2000/svg" id="Layer_1" data-name="Layer 1" viewBox="0 0 100 100" width="19.36" height="19.36"><path d="M100,100A50,50,0,0,0,0,100Z" fill="#F7B801"/></svg></g><g transform="translate(256.52,&#10;                                159.72) rotate(0, 9.68, 9.68)"><svg xmlns="http://www.w3.org/2000/svg" id="Layer_1" data-name="Layer 1" viewBox="0 0 100 100" width="19.36" height="19.36"><path d="M50,100h0A50,50,0,0,1,0,50V0H100V50A50,50,0,0,1,50,100Z" fill="#F18701"/></svg></g><g transform="translate(304.92,&#10;                                111.32) rotate(270, 9.68, 9.68)"><svg xmlns="http://www.w3.org/2000/svg" id="Layer_1" data-name="Layer 1" viewBox="0 0 100 100" width="19.36" height="19.36"><path d="M50,100a50,50,0,1,1,50-50v50Z" fill="#3D348B"/></svg></g><g transform="translate(353.32,&#10;                                159.72) rotate(270, 9.68, 9.68)"><svg xmlns="http://www.w3.org/2000/svg" id="Layer_1" data-name="Layer 1" viewBox="0 0 100 100" width="19.36" height="19.36"><path d="M100,100A50,50,0,0,0,0,100Z" fill="#F7B801"/></svg></g><g transform="translate(401.72,&#10;                                111.32) rotate(180, 9.68, 9.68)"><svg xmlns="http://www.w3.org/2000/svg" id="Layer_1" data-name="Layer 1" viewBox="0 0 100 100" width="19.36" height="19.36"><path d="M100,100A50,50,0,0,0,0,100Z" fill="#F7B801"/></svg></g><g transform="translate(450.12,&#10;                                111.32) rotate(0, 9.68, 9.68)"><svg xmlns="http://www.w3.org/2000/svg" id="Layer_1" data-name="Layer 1" viewBox="0 0 100 100" width="19.36" height="19.36"><path d="M100,100A50,50,0,0,0,0,100Z" fill="#F7B801"/></svg></g></g><g><g transform="translate(14.52,&#10;                                208.12) rotate(270, 9.68, 9.68)"><svg xmlns="http://www.w3.org/2000/svg" id="Layer_1" data-name="Layer 1" viewBox="0 0 100 100" width="19.36" height="19.36"><path d="M100,100A50,50,0,0,0,0,100Z" fill="#F7B801"/></svg></g><g transform="translate(62.92,&#10;                                208.12) rotate(0, 9.68, 9.68)"><svg xmlns="http://www.w3.org/2000/svg" id="Layer_1" data-name="Layer 1" viewBox="0 0 100 100" width="19.36" height="19.36"><path d="M100,100A50,50,0,0,0,0,100Z" fill="#F7B801"/></svg></g><g transform="translate(111.32,&#10;                                208.12) rotate(270, 9.68, 9.68)"><svg xmlns="http://www.w3.org/2000/svg" id="Layer_1" data-name="Layer 1" viewBox="0 0 100 100" width="19.36" height="19.36"><path d="M50,100a50,50,0,1,1,50-50v50Z" fill="#3D348B"/></svg></g><g transform="translate(159.72,&#10;                                208.12) rotate(90, 9.68, 9.68)"><svg xmlns="http://www.w3.org/2000/svg" id="Layer_1" data-name="Layer 1" viewBox="0 0 100 100" width="19.36" height="19.36"><circle cx="50" cy="50" r="50" fill="#7678ED"/></svg></g><g transform="translate(111.32,&#10;                                256.52) rotate(0, 9.68, 9.68)"><svg xmlns="http://www.w3.org/2000/svg" id="Layer_1" data-name="Layer 1" viewBox="0 0 100 100" width="19.36" height="19.36"><path d="M50,100h0A50,50,0,0,1,0,50V0H100V50A50,50,0,0,1,50,100Z" fill="#F18701"/></svg></g><g transform="translate(208.12,&#10;                                208.12) rotate(90, 9.68, 9.68)"><svg xmlns="http://www.w3.org/2000/svg" id="Layer_1" data-name="Layer 1" viewBox="0 0 100 100" width="19.36" height="19.36"><path d="M100,100A50,50,0,0,0,0,100Z" fill="#F7B801"/></svg></g><g transform="translate(256.52,&#10;                                208.12) rotate(90, 9.68, 9.68)"><svg xmlns="http://www.w3.org/2000/svg" id="Layer_1" data-name="Layer 1" viewBox="0 0 100 100" width="19.36" height="19.36"><path d="M100,100A50,50,0,0,0,0,100Z" fill="#F7B801"/></svg></g><g transform="translate(256.52,&#10;                                256.52) rotate(90, 9.68, 9.68)"><svg xmlns="http://www.w3.org/2000/svg" id="Layer_1" data-name="Layer 1" viewBox="0 0 100 100" width="19.36" height="19.36"><path d="M50,100a50,50,0,1,1,50-50v50Z" fill="#3D348B"/></svg></g><g transform="translate(304.92,&#10;                                208.12) rotate(90, 9.68, 9.68)"><svg xmlns="http://www.w3.org/2000/svg" id="Layer_1" data-name="Layer 1" viewBox="0 0 100 100" width="19.36" height="19.36"><path d="M100,100A50,50,0,0,0,0,100Z" fill="#F7B801"/></svg></g><g transform="translate(353.32,&#10;                                208.12) rotate(270, 9.68, 9.68)"><svg xmlns="http://www.w3.org/2000/svg" id="Layer_1" data-name="Layer 1" viewBox="0 0 100 100" width="19.36" height="19.36"><path d="M100,100A50,50,0,0,0,0,100Z" fill="#F7B801"/></svg></g><g transform="translate(304.92,&#10;                                256.52) rotate(0, 9.68, 9.68)"><svg xmlns="http://www.w3.org/2000/svg" id="Layer_1" data-name="Layer 1" viewBox="0 0 100 100" width="19.36" height="19.36"><circle cx="50" cy="50" r="50" fill="#7678ED"/></svg></g><g transform="translate(353.32,&#10;                                256.52) rotate(180, 9.68, 9.68)"><svg xmlns="http://www.w3.org/2000/svg" id="Layer_1" data-name="Layer 1" viewBox="0 0 100 100" width="19.36" height="19.36"><path d="M50,100h0A50,50,0,0,1,0,50V0H100V50A50,50,0,0,1,50,100Z" fill="#F18701"/></svg></g><g transform="translate(401.72,&#10;                                208.12) rotate(90, 9.68, 9.68)"><svg xmlns="http://www.w3.org/2000/svg" id="Layer_1" data-name="Layer 1" viewBox="0 0 100 100" width="19.36" height="19.36"><path d="M50,100a50,50,0,1,1,50-50v50Z" fill="#3D348B"/></svg></g></g><g><g transform="translate(62.92,&#10;                                304.92) rotate(270, 9.68, 9.68)"><svg xmlns="http://www.w3.org/2000/svg" id="Layer_1" data-name="Layer 1" viewBox="0 0 100 100" width="19.36" height="19.36"><circle cx="50" cy="50" r="50" fill="#7678ED"/></svg></g><g transform="translate(14.52,&#10;                                353.32) rotate(270, 9.68, 9.68)"><svg xmlns="http://www.w3.org/2000/svg" id="Layer_1" data-name="Layer 1" viewBox="0 0 100 100" width="19.36" height="19.36"><path d="M50,100h0A50,50,0,0,1,0,50V0H100V50A50,50,0,0,1,50,100Z" fill="#F18701"/></svg></g><g transform="translate(111.32,&#10;                                304.92) rotate(180, 9.68, 9.68)"><svg xmlns="http://www.w3.org/2000/svg" id="Layer_1" data-name="Layer 1" viewBox="0 0 100 100" width="19.36" height="19.36"><path d="M50,100a50,50,0,1,1,50-50v50Z" fill="#3D348B"/></svg></g><g transform="translate(159.72,&#10;                                304.92) rotate(90, 9.68, 9.68)"><svg xmlns="http://www.w3.org/2000/svg" id="Layer_1" data-name="Layer 1" viewBox="0 0 100 100" width="19.36" height="19.36"><path d="M100,100A50,50,0,0,0,0,100Z" fill="#F7B801"/></svg></g><g transform="translate(159.72,&#10;                                353.32) rotate(180, 9.68, 9.68)"><svg xmlns="http://www.w3.org/2000/svg" id="Layer_1" data-name="Layer 1" viewBox="0 0 100 100" width="19.36" height="19.36"><path d="M50,100a50,50,0,1,1,50-50v50Z" fill="#3D348B"/></svg></g><g transform="translate(208.12,&#10;                                304.92) rotate(270, 9.68, 9.68)"><svg xmlns="http://www.w3.org/2000/svg" id="Layer_1" data-name="Layer 1" viewBox="0 0 100 100" width="19.36" height="19.36"><path d="M50,100a50,50,0,1,1,50-50v50Z" fill="#3D348B"/></svg></g><g transform="translate(256.52,&#10;                                304.92) rotate(0, 9.68, 9.68)"><svg xmlns="http://www.w3.org/2000/svg" id="Layer_1" data-name="Layer 1" viewBox="0 0 100 100" width="19.36" height="19.36"><path d="M100,100A50,50,0,0,0,0,100Z" fill="#F7B801"/></svg></g><g transform="translate(256.52,&#10;                                353.32) rotate(90, 9.68, 9.68)"><svg xmlns="http://www.w3.org/2000/svg" id="Layer_1" data-name="Layer 1" viewBox="0 0 100 100" width="19.36" height="19.36"><path d="M100,100A50,50,0,0,0,0,100Z" fill="#F7B801"/></svg></g><g transform="translate(304.92,&#10;                                304.92) rotate(90, 9.68, 9.68)"><svg xmlns="http://www.w3.org/2000/svg" id="Layer_1" data-name="Layer 1" viewBox="0 0 100 100" width="19.36" height="19.36"><path d="M50,100a50,50,0,1,1,50-50v50Z" fill="#3D348B"/></svg></g><g transform="translate(353.32,&#10;                                353.32) rotate(180, 9.68, 9.68)"><svg xmlns="http://www.w3.org/2000/svg" id="Layer_1" data-name="Layer 1" viewBox="0 0 100 100" width="19.36" height="19.36"><path d="M50,100a50,50,0,1,1,50-50v50Z" fill="#3D348B"/></svg></g><g transform="translate(401.72,&#10;                                304.92) rotate(270, 9.68, 9.68)"><svg xmlns="http://www.w3.org/2000/svg" id="Layer_1" data-name="Layer 1" viewBox="0 0 100 100" width="19.36" height="19.36"><path d="M100,100A50,50,0,0,0,0,100Z" fill="#F7B801"/></svg></g><g transform="translate(450.12,&#10;                                304.92) rotate(90, 9.68, 9.68)"><svg xmlns="http://www.w3.org/2000/svg" id="Layer_1" data-name="Layer 1" viewBox="0 0 100 100" width="19.36" height="19.36"><circle cx="50" cy="50" r="50" fill="#7678ED"/></svg></g><g transform="translate(401.72,&#10;                                353.32) rotate(90, 9.68, 9.68)"><svg xmlns="http://www.w3.org/2000/svg" id="Layer_1" data-name="Layer 1" viewBox="0 0 100 100" width="19.36" height="19.36"><path d="M100,100A50,50,0,0,0,0,100Z" fill="#F7B801"/></svg></g><g transform="translate(450.12,&#10;                                353.32) rotate(270, 9.68, 9.68)"><svg xmlns="http://www.w3.org/2000/svg" id="Layer_1" data-name="Layer 1" viewBox="0 0 100 100" width="19.36" height="19.36"><path d="M50,100a50,50,0,1,1,50-50v50Z" fill="#3D348B"/></svg></g></g><g><g transform="translate(14.52,&#10;                                401.72) rotate(270, 9.68, 9.68)"><svg xmlns="http://www.w3.org/2000/svg" id="Layer_1" data-name="Layer 1" viewBox="0 0 100 100" width="19.36" height="19.36"><path d="M50,100a50,50,0,1,1,50-50v50Z" fill="#3D348B"/></svg></g><g transform="translate(62.92,&#10;                                401.72) rotate(180, 9.68, 9.68)"><svg xmlns="http://www.w3.org/2000/svg" id="Layer_1" data-name="Layer 1" viewBox="0 0 100 100" width="19.36" height="19.36"><path d="M50,100h0A50,50,0,0,1,0,50V0H100V50A50,50,0,0,1,50,100Z" fill="#F18701"/></svg></g><g transform="translate(14.52,&#10;                                450.12) rotate(90, 9.68, 9.68)"><svg xmlns="http://www.w3.org/2000/svg" id="Layer_1" data-name="Layer 1" viewBox="0 0 100 100" width="19.36" height="19.36"><path d="M100,100A50,50,0,0,0,0,100Z" fill="#F7B801"/></svg></g><g transform="translate(62.92,&#10;                                450.12) rotate(180, 9.68, 9.68)"><svg xmlns="http://www.w3.org/2000/svg" id="Layer_1" data-name="Layer 1" viewBox="0 0 100 100" width="19.36" height="19.36"><path d="M50,100h0A50,50,0,0,1,0,50V0H100V50A50,50,0,0,1,50,100Z" fill="#F18701"/></svg></g><g transform="translate(111.32,&#10;                                401.72) rotate(0, 9.68, 9.68)"><svg xmlns="http://www.w3.org/2000/svg" id="Layer_1" data-name="Layer 1" viewBox="0 0 100 100" width="19.36" height="19.36"><path d="M50,100a50,50,0,1,1,50-50v50Z" fill="#3D348B"/></svg></g><g transform="translate(111.32,&#10;                                450.12) rotate(90, 9.68, 9.68)"><svg xmlns="http://www.w3.org/2000/svg" id="Layer_1" data-name="Layer 1" viewBox="0 0 100 100" width="19.36" height="19.36"><path d="M100,100A50,50,0,0,0,0,100Z" fill="#F7B801"/></svg></g><g transform="translate(256.52,&#10;                                401.72) rotate(180, 9.68, 9.68)"><svg xmlns="http://www.w3.org/2000/svg" id="Layer_1" data-name="Layer 1" viewBox="0 0 100 100" width="19.36" height="19.36"><circle cx="50" cy="50" r="50" fill="#7678ED"/></svg></g><g transform="translate(256.52,&#10;                                450.12) rotate(180, 9.68, 9.68)"><svg xmlns="http://www.w3.org/2000/svg" id="Layer_1" data-name="Layer 1" viewBox="0 0 100 100" width="19.36" height="19.36"><path d="M50,100h0A50,50,0,0,1,0,50V0H100V50A50,50,0,0,1,50,100Z" fill="#F18701"/></svg></g><g transform="translate(304.92,&#10;                                401.72) rotate(0, 9.68, 9.68)"><svg xmlns="http://www.w3.org/2000/svg" id="Layer_1" data-name="Layer 1" viewBox="0 0 100 100" width="19.36" height="19.36"><path d="M50,100a50,50,0,1,1,50-50v50Z" fill="#3D348B"/></svg></g><g transform="translate(353.32,&#10;                                401.72) rotate(270, 9.68, 9.68)"><svg xmlns="http://www.w3.org/2000/svg" id="Layer_1" data-name="Layer 1" viewBox="0 0 100 100" width="19.36" height="19.36"><path d="M100,100A50,50,0,0,0,0,100Z" fill="#F7B801"/></svg></g><g transform="translate(304.92,&#10;                                450.12) rotate(270, 9.68, 9.68)"><svg xmlns="http://www.w3.org/2000/svg" id="Layer_1" data-name="Layer 1" viewBox="0 0 100 100" width="19.36" height="19.36"><path d="M100,100A50,50,0,0,0,0,100Z" fill="#F7B801"/></svg></g><g transform="translate(353.32,&#10;                                450.12) rotate(90, 9.68, 9.68)"><svg xmlns="http://www.w3.org/2000/svg" id="Layer_1" data-name="Layer 1" viewBox="0 0 100 100" width="19.36" height="19.36"><path d="M50,100h0A50,50,0,0,1,0,50V0H100V50A50,50,0,0,1,50,100Z" fill="#F18701"/></svg></g><g transform="translate(401.72,&#10;                                401.72) rotate(180, 9.68, 9.68)"><svg xmlns="http://www.w3.org/2000/svg" id="Layer_1" data-name="Layer 1" viewBox="0 0 100 100" width="19.36" height="19.36"><path d="M50,100a50,50,0,1,1,50-50v50Z" fill="#3D348B"/></svg></g><g transform="translate(450.12,&#10;                                450.12) rotate(270, 9.68, 9.68)"><svg xmlns="http://www.w3.org/2000/svg" id="Layer_1" data-name="Layer 1" viewBox="0 0 100 100" width="19.36" height="19.36"><path d="M100,100A50,50,0,0,0,0,100Z" fill="#F7B801"/></svg></g></g></svg>